<svg width="60" height="60" viewBox="0 0 60 60" fill="none" xmlns="http://www.w3.org/2000/svg">
<circle cx="30" cy="30" r="29" fill="white" stroke="#728ADF" stroke-width="2"/>
<path d="M35 20H25C22.2386 20 20 22.2386 20 25V35C20 37.7614 22.2386 40 25 40H35C37.7614 40 40 37.7614 40 35V25C40 22.2386 37.7614 20 35 20Z" stroke="#728ADF" stroke-width="2" stroke-linecap="round" stroke-linejoin="round"/>
<path d="M33.9997 29.3701C34.1231 30.2023 33.981 31.0523 33.5935 31.7991C33.206 32.5459 32.5929 33.1515 31.8413 33.5297C31.0898 33.908 30.2382 34.0397 29.4075 33.906C28.5768 33.7723 27.8095 33.3801 27.2145 32.7852C26.6196 32.1903 26.2274 31.4229 26.0938 30.5923C25.9601 29.7616 26.0918 28.91 26.47 28.1584C26.8483 27.4069 27.4539 26.7938 28.2007 26.4063C28.9475 26.0188 29.7975 25.8766 30.6297 26.0001C31.4786 26.1259 32.2646 26.5215 32.8714 27.1284C33.4782 27.7352 33.8738 28.5211 33.9997 29.3701Z" stroke="#728ADF" stroke-width="2" stroke-linecap="round" stroke-linejoin="round"/>
<path d="M35.5 24.5H35.51" stroke="#728ADF" stroke-width="2" stroke-linecap="round" stroke-linejoin="round"/>
</svg>
