<svg width="130" height="38" viewBox="0 0 130 38" fill="none" xmlns="http://www.w3.org/2000/svg">
<path d="M5 34.8334V15.0417C5 11.0834 7.85 7.60008 16.0833 3.16675V10.2917H21.625V15.0417" stroke="#728ADF" stroke-width="2" stroke-linecap="round" stroke-linejoin="round"/>
<path d="M12.917 19.7917C16.0942 21.2015 21.9056 23.848 23.2087 31.6667C23.6045 34.0417 27.9587 37.2084 32.7087 31.6667C34.2875 29.9757 34.5461 27.1929 30.147 25.7832" stroke="#728ADF" stroke-width="2" stroke-linecap="round" stroke-linejoin="round"/>
<path d="M22.4163 28.5006C19.7775 28.2015 13.708 29.2921 13.708 34.8335" stroke="#728ADF" stroke-width="2" stroke-linecap="round" stroke-linejoin="round"/>
<path d="M48.384 22.64V34H47.28V28.688H40.544V34H39.424V22.64H40.544V27.696H47.28V22.64H48.384ZM50.2624 31.6C50.2624 31.0773 50.4117 30.6293 50.7104 30.256C51.009 29.872 51.4197 29.5787 51.9424 29.376C52.4757 29.1627 53.089 29.056 53.7824 29.056C54.1877 29.056 54.609 29.088 55.0464 29.152C55.4837 29.216 55.873 29.312 56.2144 29.44V28.736C56.2144 28.032 56.0064 27.472 55.5904 27.056C55.1744 26.64 54.5984 26.432 53.8624 26.432C53.4144 26.432 52.9717 26.5173 52.5344 26.688C52.1077 26.848 51.6597 27.088 51.1904 27.408L50.7744 26.64C51.3184 26.2667 51.8517 25.9893 52.3744 25.808C52.897 25.616 53.4304 25.52 53.9744 25.52C54.9984 25.52 55.809 25.8133 56.4064 26.4C57.0037 26.9867 57.3024 27.7973 57.3024 28.832V32.688C57.3024 32.8373 57.3344 32.9493 57.3984 33.024C57.4624 33.088 57.5637 33.1253 57.7024 33.136V34C57.585 34.0107 57.4837 34.0213 57.3984 34.032C57.313 34.0427 57.249 34.0427 57.2064 34.032C56.9397 34.0213 56.737 33.936 56.5984 33.776C56.4597 33.616 56.385 33.4453 56.3744 33.264L56.3584 32.656C55.985 33.136 55.4997 33.5093 54.9024 33.776C54.305 34.032 53.697 34.16 53.0784 34.16C52.545 34.16 52.0597 34.048 51.6224 33.824C51.1957 33.5893 50.8597 33.28 50.6144 32.896C50.3797 32.5013 50.2624 32.0693 50.2624 31.6ZM55.8464 32.24C55.9637 32.0907 56.0544 31.9467 56.1184 31.808C56.1824 31.6693 56.2144 31.5467 56.2144 31.44V30.224C55.8517 30.0853 55.473 29.9787 55.0784 29.904C54.6944 29.8293 54.305 29.792 53.9104 29.792C53.1317 29.792 52.5024 29.9467 52.0224 30.256C51.5424 30.5653 51.3024 30.9867 51.3024 31.52C51.3024 31.8293 51.3824 32.1227 51.5424 32.4C51.7024 32.6667 51.937 32.8907 52.2464 33.072C52.5557 33.2427 52.9184 33.328 53.3344 33.328C53.857 33.328 54.3424 33.2267 54.7904 33.024C55.249 32.8213 55.601 32.56 55.8464 32.24ZM63.9091 34.16C63.2158 34.16 62.5918 33.9787 62.0371 33.616C61.4931 33.2533 61.0611 32.8053 60.7411 32.272V37.408H59.6531V25.664H60.6291V27.28C60.9598 26.7573 61.4025 26.336 61.9571 26.016C62.5118 25.6853 63.1038 25.52 63.7331 25.52C64.3091 25.52 64.8371 25.6427 65.3171 25.888C65.7971 26.1227 66.2131 26.4427 66.5651 26.848C66.9171 27.2533 67.1891 27.7173 67.3811 28.24C67.5838 28.752 67.6851 29.2853 67.6851 29.84C67.6851 30.6187 67.5251 31.3387 67.2051 32C66.8958 32.6507 66.4585 33.1733 65.8931 33.568C65.3278 33.9627 64.6665 34.16 63.9091 34.16ZM63.6051 33.2C64.0638 33.2 64.4745 33.1093 64.8371 32.928C65.1998 32.736 65.5091 32.48 65.7651 32.16C66.0318 31.84 66.2345 31.4827 66.3731 31.088C66.5118 30.6827 66.5811 30.2667 66.5811 29.84C66.5811 29.392 66.5011 28.9653 66.3411 28.56C66.1918 28.1547 65.9731 27.7973 65.6851 27.488C65.3971 27.1787 65.0665 26.9333 64.6931 26.752C64.3198 26.5707 63.9145 26.48 63.4771 26.48C63.1998 26.48 62.9118 26.5333 62.6131 26.64C62.3145 26.7467 62.0265 26.9013 61.7491 27.104C61.4825 27.296 61.2585 27.5147 61.0771 27.76C60.8958 28.0053 60.7838 28.2667 60.7411 28.544V31.104C60.9118 31.4987 61.1411 31.856 61.4291 32.176C61.7171 32.4853 62.0478 32.736 62.4211 32.928C62.8051 33.1093 63.1998 33.2 63.6051 33.2ZM73.7841 34.16C73.0908 34.16 72.4668 33.9787 71.9121 33.616C71.3681 33.2533 70.9361 32.8053 70.6161 32.272V37.408H69.5281V25.664H70.5041V27.28C70.8348 26.7573 71.2775 26.336 71.8321 26.016C72.3868 25.6853 72.9788 25.52 73.6081 25.52C74.1841 25.52 74.7121 25.6427 75.1921 25.888C75.6721 26.1227 76.0881 26.4427 76.4401 26.848C76.7921 27.2533 77.0641 27.7173 77.2561 28.24C77.4588 28.752 77.5601 29.2853 77.5601 29.84C77.5601 30.6187 77.4001 31.3387 77.0801 32C76.7708 32.6507 76.3335 33.1733 75.7681 33.568C75.2028 33.9627 74.5415 34.16 73.7841 34.16ZM73.4801 33.2C73.9388 33.2 74.3495 33.1093 74.7121 32.928C75.0748 32.736 75.3841 32.48 75.6401 32.16C75.9068 31.84 76.1095 31.4827 76.2481 31.088C76.3868 30.6827 76.4561 30.2667 76.4561 29.84C76.4561 29.392 76.3761 28.9653 76.2161 28.56C76.0668 28.1547 75.8481 27.7973 75.5601 27.488C75.2721 27.1787 74.9415 26.9333 74.5681 26.752C74.1948 26.5707 73.7895 26.48 73.3521 26.48C73.0748 26.48 72.7868 26.5333 72.4881 26.64C72.1895 26.7467 71.9015 26.9013 71.6241 27.104C71.3575 27.296 71.1335 27.5147 70.9521 27.76C70.7708 28.0053 70.6588 28.2667 70.6161 28.544V31.104C70.7868 31.4987 71.0161 31.856 71.3041 32.176C71.5921 32.4853 71.9228 32.736 72.2961 32.928C72.6801 33.1093 73.0748 33.2 73.4801 33.2ZM79.6019 36.56C79.7512 36.5707 79.8952 36.576 80.0339 36.576C80.1725 36.5867 80.2739 36.5813 80.3379 36.56C80.4659 36.5387 80.5885 36.464 80.7059 36.336C80.8232 36.208 80.9619 35.9627 81.1219 35.6C81.2819 35.2373 81.5059 34.704 81.7939 34L78.1619 25.664H79.3139L82.3699 32.88L85.1859 25.664H86.2739L81.9539 36.416C81.8792 36.6187 81.7672 36.8053 81.6179 36.976C81.4685 37.1573 81.2819 37.296 81.0579 37.392C80.8445 37.4987 80.5779 37.5573 80.2579 37.568C80.1619 37.5787 80.0605 37.5787 79.9539 37.568C79.8579 37.568 79.7405 37.5573 79.6019 37.536V36.56ZM91.6584 34V22.64H96.3624C96.853 22.64 97.301 22.7413 97.7064 22.944C98.1224 23.1467 98.4797 23.424 98.7784 23.776C99.077 24.1173 99.3117 24.5013 99.4824 24.928C99.653 25.344 99.7384 25.7707 99.7384 26.208C99.7384 26.8267 99.5997 27.4133 99.3224 27.968C99.0557 28.512 98.677 28.9547 98.1864 29.296C97.6957 29.6373 97.1197 29.808 96.4584 29.808H92.7784V34H91.6584ZM92.7784 28.816H96.4104C96.8584 28.816 97.2477 28.6933 97.5784 28.448C97.909 28.2027 98.165 27.8827 98.3464 27.488C98.5277 27.0933 98.6184 26.6667 98.6184 26.208C98.6184 25.7387 98.5117 25.3067 98.2984 24.912C98.085 24.5173 97.8024 24.208 97.4504 23.984C97.109 23.7493 96.7304 23.632 96.3144 23.632H92.7784V28.816ZM100.622 31.6C100.622 31.0773 100.771 30.6293 101.07 30.256C101.368 29.872 101.779 29.5787 102.302 29.376C102.835 29.1627 103.448 29.056 104.142 29.056C104.547 29.056 104.968 29.088 105.406 29.152C105.843 29.216 106.232 29.312 106.574 29.44V28.736C106.574 28.032 106.366 27.472 105.95 27.056C105.534 26.64 104.958 26.432 104.222 26.432C103.774 26.432 103.331 26.5173 102.894 26.688C102.467 26.848 102.019 27.088 101.55 27.408L101.134 26.64C101.678 26.2667 102.211 25.9893 102.734 25.808C103.256 25.616 103.79 25.52 104.334 25.52C105.358 25.52 106.168 25.8133 106.766 26.4C107.363 26.9867 107.662 27.7973 107.662 28.832V32.688C107.662 32.8373 107.694 32.9493 107.758 33.024C107.822 33.088 107.923 33.1253 108.062 33.136V34C107.944 34.0107 107.843 34.0213 107.758 34.032C107.672 34.0427 107.608 34.0427 107.566 34.032C107.299 34.0213 107.096 33.936 106.958 33.776C106.819 33.616 106.744 33.4453 106.734 33.264L106.718 32.656C106.344 33.136 105.859 33.5093 105.262 33.776C104.664 34.032 104.056 34.16 103.438 34.16C102.904 34.16 102.419 34.048 101.982 33.824C101.555 33.5893 101.219 33.28 100.974 32.896C100.739 32.5013 100.622 32.0693 100.622 31.6ZM106.206 32.24C106.323 32.0907 106.414 31.9467 106.478 31.808C106.542 31.6693 106.574 31.5467 106.574 31.44V30.224C106.211 30.0853 105.832 29.9787 105.438 29.904C105.054 29.8293 104.664 29.792 104.27 29.792C103.491 29.792 102.862 29.9467 102.382 30.256C101.902 30.5653 101.662 30.9867 101.662 31.52C101.662 31.8293 101.742 32.1227 101.902 32.4C102.062 32.6667 102.296 32.8907 102.606 33.072C102.915 33.2427 103.278 33.328 103.694 33.328C104.216 33.328 104.702 33.2267 105.15 33.024C105.608 32.8213 105.96 32.56 106.206 32.24ZM120.259 25.664H121.331L117.747 34H116.803L115.059 29.856L113.331 34H112.387L108.803 25.664H109.859L112.899 32.88L114.435 29.12L113.027 25.68H114.003L115.059 28.384L116.131 25.68H117.091L115.699 29.12L117.235 32.88L120.259 25.664ZM125.311 34.16C124.628 34.16 123.994 34.048 123.407 33.824C122.82 33.6 122.314 33.2587 121.887 32.8L122.335 32.032C122.804 32.4693 123.274 32.7893 123.743 32.992C124.223 33.184 124.73 33.28 125.263 33.28C125.914 33.28 126.442 33.152 126.847 32.896C127.252 32.6293 127.455 32.2507 127.455 31.76C127.455 31.4293 127.354 31.1787 127.151 31.008C126.959 30.8267 126.676 30.6827 126.303 30.576C125.94 30.4587 125.503 30.336 124.991 30.208C124.415 30.048 123.93 29.8827 123.535 29.712C123.151 29.5307 122.858 29.3067 122.655 29.04C122.463 28.7627 122.367 28.4053 122.367 27.968C122.367 27.424 122.5 26.976 122.767 26.624C123.044 26.2613 123.418 25.9893 123.887 25.808C124.367 25.616 124.9 25.52 125.487 25.52C126.127 25.52 126.692 25.6213 127.183 25.824C127.674 26.0267 128.074 26.3093 128.383 26.672L127.855 27.408C127.556 27.0667 127.199 26.816 126.783 26.656C126.378 26.4853 125.924 26.4 125.423 26.4C125.082 26.4 124.756 26.448 124.447 26.544C124.138 26.6293 123.882 26.7787 123.679 26.992C123.487 27.1947 123.391 27.4773 123.391 27.84C123.391 28.1387 123.466 28.3733 123.615 28.544C123.764 28.704 123.988 28.8427 124.287 28.96C124.586 29.0667 124.954 29.184 125.391 29.312C126.02 29.4827 126.57 29.6587 127.039 29.84C127.508 30.0107 127.871 30.2347 128.127 30.512C128.383 30.7893 128.511 31.1787 128.511 31.68C128.511 32.4587 128.218 33.0667 127.631 33.504C127.044 33.9413 126.271 34.16 125.311 34.16Z" fill="#25282B"/>
</svg>
