<svg width="60" height="60" viewBox="0 0 60 60" fill="none" xmlns="http://www.w3.org/2000/svg">
<circle cx="30" cy="30" r="29" fill="white" stroke="#728ADF" stroke-width="2"/>
<g clip-path="url(#clip0_1102_19356)">
<path d="M30.145 37.5C33.617 37.5 32.379 35.302 32.647 34.67C32.643 34.198 32.639 33.744 32.655 33.468C32.875 33.53 33.394 33.793 34.466 34.835C36.121 36.505 36.544 37.5 37.881 37.5H40.342C41.122 37.5 41.528 37.177 41.731 36.906C41.927 36.644 42.119 36.184 41.909 35.468C41.36 33.744 38.158 30.767 37.959 30.453C37.989 30.395 38.037 30.318 38.062 30.278H38.06C38.692 29.443 41.104 25.829 41.459 24.383C41.46 24.381 41.461 24.378 41.461 24.375C41.653 23.715 41.477 23.287 41.295 23.045C41.021 22.683 40.585 22.5 39.996 22.5H37.535C36.711 22.5 36.086 22.915 35.77 23.672C35.241 25.017 33.755 27.783 32.641 28.762C32.607 27.375 32.63 26.316 32.648 25.529C32.684 23.994 32.8 22.5 31.207 22.5H27.339C26.341 22.5 25.386 23.59 26.42 24.884C27.324 26.018 26.745 26.65 26.94 29.796C26.18 28.981 24.828 26.78 23.872 23.967C23.604 23.206 23.198 22.501 22.055 22.501H19.594C18.596 22.501 18 23.045 18 23.956C18 26.002 22.529 37.5 30.145 37.5ZM22.055 24.001C22.272 24.001 22.294 24.001 22.455 24.458C23.434 27.341 25.63 31.607 27.234 31.607C28.439 31.607 28.439 30.372 28.439 29.907L28.438 26.205C28.372 24.98 27.926 24.37 27.633 24L31.141 24.004C31.143 24.021 31.121 28.099 31.151 29.087C31.151 30.49 32.265 31.294 34.004 29.534C35.839 27.463 37.108 24.367 37.159 24.241C37.234 24.061 37.299 24 37.535 24H39.996H40.006C40.005 24.003 40.005 24.006 40.004 24.009C39.779 25.059 37.558 28.405 36.815 29.444C36.803 29.46 36.792 29.477 36.781 29.494C36.454 30.028 36.188 30.618 36.826 31.448C36.884 31.518 37.036 31.682 37.256 31.91C37.94 32.616 40.286 35.03 40.494 35.99C40.356 36.012 40.206 35.996 37.881 36.001C37.386 36.001 36.999 35.261 35.522 33.771C34.194 32.479 33.332 31.951 32.547 31.951C31.023 31.951 31.134 33.188 31.148 34.684C31.153 36.306 31.143 35.793 31.154 35.895C31.065 35.93 30.81 36 30.145 36C23.8 36 19.668 25.929 19.509 24.004C19.564 23.999 20.321 24.002 22.055 24.001Z" fill="#728ADF" stroke="#728ADF" stroke-width="0.3"/>
</g>
<defs>
<clipPath id="clip0_1102_19356">
<rect width="24" height="24" fill="white" transform="translate(18 18)"/>
</clipPath>
</defs>
</svg>
