<svg width="60" height="60" viewBox="0 0 60 60" fill="none" xmlns="http://www.w3.org/2000/svg">
<circle cx="30" cy="30" r="29" fill="white" stroke="#728ADF" stroke-width="2"/>
<path d="M40.5396 24.42C40.4208 23.9454 40.1789 23.5106 39.8382 23.1594C39.4976 22.8082 39.0703 22.5532 38.5996 22.42C36.8796 22 29.9996 22 29.9996 22C29.9996 22 23.1196 22 21.3996 22.46C20.9288 22.5932 20.5016 22.8482 20.1609 23.1994C19.8203 23.5506 19.5784 23.9854 19.4596 24.46C19.1448 26.2056 18.9908 27.9763 18.9996 29.75C18.9884 31.537 19.1424 33.3213 19.4596 35.08C19.5906 35.5398 19.8379 35.9581 20.1777 36.2945C20.5176 36.6308 20.9384 36.8738 21.3996 37C23.1196 37.46 29.9996 37.46 29.9996 37.46C29.9996 37.46 36.8796 37.46 38.5996 37C39.0703 36.8668 39.4976 36.6118 39.8382 36.2606C40.1789 35.9094 40.4208 35.4746 40.5396 35C40.852 33.2676 41.0059 31.5103 40.9996 29.75C41.0108 27.963 40.8568 26.1787 40.5396 24.42V24.42Z" stroke="#728ADF" stroke-width="2" stroke-linecap="round" stroke-linejoin="round"/>
<path d="M27.75 33.02L33.5 29.75L27.75 26.48V33.02Z" stroke="#728ADF" stroke-width="2" stroke-linecap="round" stroke-linejoin="round"/>
</svg>
